<svg
   version="1.1"
   id="svg1"
   width="12"
   height="12"
   viewBox="0 0 105.33334 107.04072"
   xmlns="http://www.w3.org/2000/svg">
  <defs
     id="defs1" />
  <g
     id="g1"
     transform="translate(-15.115251,-9.917819)">
    <path
       style="fill:#009FD9"
       d="m 36.366934,115.03953 -0.736395,-1.91901 2.15719,-11.84117 c 1.186454,-6.51264 2.453923,-12.86904 2.816598,-14.12532 L 41.263735,84.869874 28.189493,84.487362 15.115251,84.104851 v -3.333334 -3.333333 l 13.652933,-0.379826 13.652933,-0.379826 0.627916,-2.953507 c 0.345354,-1.624429 1.292855,-6.553508 2.105558,-10.953508 0.812704,-4.4 1.769974,-9.028638 2.127269,-10.285863 L 47.931486,50.19979 34.190035,49.818987 20.448585,49.438184 v -3.333333 -3.333334 l 14.247987,-0.377576 14.247988,-0.377577 1.40751,-6.955757 c 0.77413,-3.825666 2.162535,-10.855756 3.085345,-15.622423 l 1.677836,-8.666667 3.005961,-0.426849 3.005961,-0.4268489 0.736395,1.9190149 0.736395,1.919014 -2.157189,11.841168 c -1.186454,6.512642 -2.460947,12.891168 -2.832206,14.174501 l -0.675017,2.333334 h 14.661986 14.661986 l 1.4167,-7 c 0.77918,-3.85 2.17172,-10.9 3.09453,-15.666667 l 1.67783,-8.666667 3.00596,-0.426849 3.00597,-0.4268489 0.73639,1.9190149 0.7364,1.919014 -2.15719,11.841168 c -1.18646,6.512642 -2.45393,12.869038 -2.8166,14.125323 l -0.65941,2.284155 13.074237,0.382512 13.07425,0.382511 v 3.333334 3.333333 l -13.65294,0.379826 -13.652927,0.379826 -0.62792,2.953507 c -0.34535,1.624429 -1.29285,6.553508 -2.10556,10.953508 -0.8127,4.4 -1.76997,9.028638 -2.12727,10.285863 l -0.64962,2.285864 13.741447,0.380803 13.74145,0.380803 v 3.333333 3.333334 l -14.24799,0.377576 -14.247987,0.377577 -1.40751,6.955756 c -0.77413,3.82567 -2.162532,10.85575 -3.085342,15.62242 l -1.677836,8.66667 -3.005961,0.42685 -3.005961,0.42684 -0.736395,-1.91901 -0.736395,-1.91901 2.157189,-11.84117 c 1.186454,-6.51264 2.460947,-12.89117 2.832206,-14.1745 l 0.675017,-2.333333 H 63.966299 49.304312 l -1.416694,7.000003 c -0.779182,3.85 -2.171721,10.89999 -3.09453,15.66666 l -1.677837,8.66667 -3.005961,0.42685 -3.005961,0.42684 z M 80.370697,73.771517 c 0.351772,-1.65 1.304524,-6.6 2.117228,-11 0.812703,-4.4 1.776758,-9.05 2.142338,-10.333333 l 0.66469,-2.333333 H 70.563838 55.832723 l -0.639584,3 c -0.351772,1.65 -1.304524,6.6 -2.117228,11 -0.812703,4.4 -1.776754,9.05 -2.142334,10.333333 l -0.664693,2.333333 h 14.731114 14.731115 z"
       id="path48" />
  </g>
</svg>
